<?xml version="1.0" standalone="no"?>
<!DOCTYPE svg PUBLIC "-//W3C//DTD SVG 20010904//EN"
 "http://www.w3.org/TR/2001/REC-SVG-20010904/DTD/svg10.dtd">
<svg version="1.0" xmlns="http://www.w3.org/2000/svg"
 width="1024.000000pt" height="1024.000000pt" viewBox="0 0 1024.000000 1024.000000"
 preserveAspectRatio="xMidYMid meet">
<metadata>
Created by potrace 1.14, written by Peter Selinger 2001-2017
</metadata>
<g transform="translate(0.000000,1024.000000) scale(0.100000,-0.100000)"
fill="#000000" stroke="none">
<path d="M4870 8469 c-583 -46 -1103 -224 -1597 -547 -259 -168 -518 -398
-709 -627 -101 -121 -124 -152 -116 -160 4 -5 2 -5 -4 -2 -6 4 -26 -16 -45
-44 -184 -275 -306 -489 -292 -512 3 -6 1 -7 -4 -4 -14 9 -77 -137 -70 -163 5
-18 3 -19 -10 -8 -14 11 -16 10 -11 -14 3 -15 2 -25 -3 -23 -15 10 -124 -322
-169 -520 -58 -250 -89 -678 -69 -945 12 -155 37 -352 60 -465 38 -192 160
-572 179 -560 4 3 6 -3 3 -14 -4 -18 115 -275 191 -408 272 -483 721 -940
1206 -1226 85 -51 400 -205 463 -227 185 -66 290 -100 294 -96 4 4 -10 168
-63 721 -38 397 -48 504 -64 715 -6 74 -15 169 -20 210 -6 41 -10 86 -10 99 0
42 -80 825 -89 871 -5 24 -7 48 -5 52 3 4 0 50 -5 100 -10 91 -30 332 -52 633
-15 193 -18 606 -5 598 5 -3 6 -1 2 5 -4 6 1 42 10 79 8 37 17 73 18 78 6 35
68 136 107 176 71 72 121 93 319 129 36 6 73 19 83 28 16 15 17 15 12 -1 -6
-14 6 -13 87 9 113 32 239 84 231 97 -3 6 -1 7 5 3 6 -3 39 10 73 31 119 69
234 89 344 59 28 -7 102 -34 165 -59 130 -52 243 -82 345 -92 195 -20 349
-121 430 -283 74 -149 114 -303 195 -752 75 -417 124 -628 234 -990 76 -252
208 -632 321 -925 25 -66 55 -147 67 -180 11 -33 43 -118 70 -190 27 -71 90
-238 140 -370 49 -132 94 -244 98 -249 22 -23 330 270 503 478 336 406 586
921 697 1441 50 235 64 383 64 690 0 293 -5 361 -45 595 -56 327 -202 737
-367 1035 -280 504 -709 950 -1197 1246 -22 13 -47 29 -56 34 -56 35 -349 178
-424 208 -269 105 -505 170 -755 206 -258 38 -524 48 -760 30z m-327 -2036
c-7 -2 -19 -2 -25 0 -7 3 -2 5 12 5 14 0 19 -2 13 -5z m-80 -20 c-7 -2 -19 -2
-25 0 -7 3 -2 5 12 5 14 0 19 -2 13 -5z m-646 -1015 c-3 -7 -5 -2 -5 12 0 14
2 19 5 13 2 -7 2 -19 0 -25z"/>
<path d="M4964 6326 c-209 -97 -176 -395 50 -446 115 -26 236 49 272 168 35
117 -26 238 -142 282 -71 26 -117 25 -180 -4z"/>
<path d="M5699 6085 c-57 -18 -125 -83 -139 -133 -23 -84 -6 -178 43 -231 49
-53 98 -75 167 -75 74 0 114 17 165 70 163 167 -12 441 -236 369z"/>
<path d="M4232 6059 c-50 -25 -107 -88 -123 -136 -6 -19 -9 -64 -7 -99 5 -75
37 -130 107 -179 39 -27 50 -30 120 -30 69 0 83 3 126 30 124 77 151 245 58
356 -63 75 -192 102 -281 58z"/>
<path d="M4926 5599 c-163 -76 -224 -115 -313 -206 -77 -79 -130 -158 -170
-255 -76 -188 46 -418 245 -459 53 -11 74 -10 159 5 54 10 145 34 203 53 l104
35 61 -16 c96 -24 143 -27 262 -17 86 8 126 16 167 36 140 66 208 231 157 382
-51 151 -184 294 -351 378 -69 34 -345 126 -376 124 -11 0 -77 -27 -148 -60z"/>
</g>
</svg>
